<svg width="38" height="38" viewBox="0 0 38 38" fill="none" xmlns="http://www.w3.org/2000/svg">
<path d="M11.5 0C10.1938 0 9.125 1.06875 9.125 2.375V35.625C9.125 36.9313 10.1938 38 11.5 38H35.25C36.5562 38 37.625 36.9313 37.625 35.625V9.5L28.125 0H11.5Z" fill="#E2E5E7"/>
<path d="M30.6875 26.1875H8.125V27.375H30.6875C31.3406 27.375 31.875 26.8406 31.875 26.1875V25C31.875 25.6531 31.3406 26.1875 30.6875 26.1875Z" fill="#CAD1D8"/>
<path d="M30.5 9.5H37.625L28.125 0V7.125C28.125 8.43125 29.1938 9.5 30.5 9.5Z" fill="#B0B7BD"/>
<path d="M37.625 16.625L30.5 9.5H37.625V16.625Z" fill="#CAD1D8"/>
<path d="M30.0067 13H4.99325C3.89241 13 3 13.9814 3 15.1919V24.8081C3 26.0186 3.89241 27 4.99325 27H30.0067C31.1076 27 32 26.0186 32 24.8081V15.1919C32 13.9814 31.1076 13 30.0067 13Z" fill="#3742FA"/>
<mask id="path-6-outside-1_112_4278" maskUnits="userSpaceOnUse" x="4.79688" y="16" width="25" height="8" fill="black">
<rect fill="white" x="4.79688" y="16" width="25" height="8"/>
<path d="M8.03457 17.0007H6.32086C6.18189 17.0007 6.04861 17.0559 5.95035 17.1542C5.85208 17.2525 5.79688 17.3858 5.79688 17.5247V22.7059C5.79688 22.8449 5.85208 22.9782 5.95035 23.0765C6.04861 23.1747 6.18189 23.2299 6.32086 23.2299H8.03457C8.72622 23.2291 9.38932 22.954 9.8784 22.465C10.3675 21.9759 10.6426 21.3128 10.6434 20.6211V19.6095C10.6426 18.9179 10.3675 18.2548 9.8784 17.7657C9.38932 17.2766 8.72622 17.0015 8.03457 17.0007ZM9.59316 20.6211C9.59316 21.0345 9.42896 21.4309 9.13666 21.7232C8.84437 22.0155 8.44794 22.1797 8.03457 22.1797H6.84707V18.0495H8.03457C8.44794 18.0495 8.84437 18.2137 9.13666 18.506C9.42896 18.7982 9.59316 19.1947 9.59316 19.608V20.6211ZM14.4263 17.0007H14.214C13.5997 17.0015 13.0108 17.2459 12.5764 17.6803C12.1421 18.1146 11.8977 18.7036 11.8969 19.3179V20.9128C11.8977 21.5271 12.1421 22.116 12.5764 22.5504C13.0108 22.9848 13.5997 23.2291 14.214 23.2299H14.4263C15.0406 23.2291 15.6295 22.9848 16.0639 22.5504C16.4982 22.116 16.7426 21.5271 16.7434 20.9128V19.3179C16.7426 18.7036 16.4982 18.1146 16.0639 17.6803C15.6295 17.2459 15.0406 17.0015 14.4263 17.0007ZM15.6947 20.9128C15.6943 21.2491 15.5605 21.5715 15.3227 21.8093C15.085 22.0471 14.7626 22.1808 14.4263 22.1812H14.214C13.8783 22.1798 13.5568 22.0457 13.3197 21.808C13.0826 21.5704 12.9492 21.2485 12.9486 20.9128V19.3179C12.949 18.9814 13.0828 18.6589 13.3208 18.4211C13.5587 18.1833 13.8813 18.0496 14.2177 18.0495H14.43C14.7656 18.0508 15.0871 18.185 15.3241 18.4227C15.561 18.6604 15.6943 18.9822 15.6947 19.3179V20.9128ZM19.0449 19.1412V21.0902C19.0453 21.3797 19.1606 21.6572 19.3654 21.8618C19.5703 22.0663 19.8479 22.1812 20.1374 22.1812H20.7022C20.9132 22.1812 21.1197 22.1202 21.2969 22.0055C21.474 21.8908 21.6141 21.7273 21.7005 21.5348C21.728 21.4713 21.7679 21.4139 21.8178 21.3659C21.8676 21.3179 21.9265 21.2802 21.991 21.2551C22.0555 21.23 22.1243 21.2179 22.1935 21.2195C22.2627 21.2212 22.3309 21.2365 22.3942 21.2646C22.4574 21.2928 22.5144 21.3332 22.562 21.3835C22.6095 21.4338 22.6466 21.493 22.6711 21.5577C22.6957 21.6225 22.7071 21.6914 22.7048 21.7606C22.7026 21.8298 22.6866 21.8978 22.6579 21.9608C22.4893 22.3386 22.2149 22.6595 21.8679 22.8847C21.5208 23.11 21.116 23.2298 20.7022 23.2299H20.1374C19.5698 23.2297 19.0254 23.0043 18.6238 22.6031C18.2222 22.202 17.9963 21.6578 17.9955 21.0902V19.1412C17.9961 18.5736 18.2217 18.0295 18.623 17.6281C19.0243 17.2267 19.5684 17.0008 20.1359 17H20.7007C21.1146 17.0003 21.5195 17.1204 21.8666 17.3459C22.2136 17.5714 22.488 17.8926 22.6564 18.2706C22.6851 18.3336 22.7011 18.4016 22.7034 18.4708C22.7056 18.54 22.6942 18.6089 22.6696 18.6737C22.6451 18.7384 22.608 18.7976 22.5605 18.8479C22.5129 18.8982 22.4559 18.9386 22.3927 18.9668C22.3294 18.9949 22.2612 19.0102 22.192 19.0119C22.1229 19.0135 22.054 19.0014 21.9895 18.9763C21.925 18.9512 21.8661 18.9135 21.8163 18.8655C21.7664 18.8175 21.7265 18.7601 21.699 18.6966C21.6129 18.5038 21.4728 18.34 21.2957 18.2251C21.1185 18.1101 20.9119 18.0488 20.7007 18.0487H20.1359C19.8465 18.0493 19.5691 18.1646 19.3646 18.3694C19.1601 18.5742 19.0451 18.8518 19.0449 19.1412ZM28.7015 17.8342L27.0301 20.115L28.7015 22.395C28.7422 22.4505 28.7716 22.5134 28.7879 22.5803C28.8043 22.6472 28.8073 22.7166 28.7968 22.7846C28.7864 22.8526 28.7626 22.9179 28.7269 22.9767C28.6912 23.0356 28.6442 23.0868 28.5887 23.1275C28.5332 23.1682 28.4702 23.1976 28.4034 23.2139C28.3365 23.2303 28.2671 23.2333 28.1991 23.2228C28.1311 23.2123 28.0658 23.1886 28.0069 23.1529C27.9481 23.1171 27.8969 23.0702 27.8562 23.0147L26.3822 21.0011L24.906 23.0147C24.8238 23.1268 24.7004 23.2017 24.5631 23.2228C24.4257 23.244 24.2855 23.2097 24.1734 23.1275C24.0613 23.0453 23.9865 22.922 23.9653 22.7846C23.9442 22.6472 23.9784 22.5071 24.0606 22.395L25.7328 20.115L24.0606 17.8342C23.9784 17.7221 23.9442 17.582 23.9653 17.4446C23.9865 17.3072 24.0613 17.1839 24.1734 17.1017C24.2855 17.0195 24.4257 16.9852 24.5631 17.0064C24.7004 17.0275 24.8238 17.1024 24.906 17.2145L26.3822 19.228L27.8584 17.2145C27.9406 17.1024 28.0639 17.0275 28.2013 17.0064C28.3387 16.9852 28.4788 17.0195 28.5909 17.1017C28.703 17.1839 28.7779 17.3072 28.7991 17.4446C28.8202 17.582 28.7859 17.7221 28.7038 17.8342H28.7015Z"/>
</mask>
<path d="M8.03457 17.0007H6.32086C6.18189 17.0007 6.04861 17.0559 5.95035 17.1542C5.85208 17.2525 5.79688 17.3858 5.79688 17.5247V22.7059C5.79688 22.8449 5.85208 22.9782 5.95035 23.0765C6.04861 23.1747 6.18189 23.2299 6.32086 23.2299H8.03457C8.72622 23.2291 9.38932 22.954 9.8784 22.465C10.3675 21.9759 10.6426 21.3128 10.6434 20.6211V19.6095C10.6426 18.9179 10.3675 18.2548 9.8784 17.7657C9.38932 17.2766 8.72622 17.0015 8.03457 17.0007ZM9.59316 20.6211C9.59316 21.0345 9.42896 21.4309 9.13666 21.7232C8.84437 22.0155 8.44794 22.1797 8.03457 22.1797H6.84707V18.0495H8.03457C8.44794 18.0495 8.84437 18.2137 9.13666 18.506C9.42896 18.7982 9.59316 19.1947 9.59316 19.608V20.6211ZM14.4263 17.0007H14.214C13.5997 17.0015 13.0108 17.2459 12.5764 17.6803C12.1421 18.1146 11.8977 18.7036 11.8969 19.3179V20.9128C11.8977 21.5271 12.1421 22.116 12.5764 22.5504C13.0108 22.9848 13.5997 23.2291 14.214 23.2299H14.4263C15.0406 23.2291 15.6295 22.9848 16.0639 22.5504C16.4982 22.116 16.7426 21.5271 16.7434 20.9128V19.3179C16.7426 18.7036 16.4982 18.1146 16.0639 17.6803C15.6295 17.2459 15.0406 17.0015 14.4263 17.0007ZM15.6947 20.9128C15.6943 21.2491 15.5605 21.5715 15.3227 21.8093C15.085 22.0471 14.7626 22.1808 14.4263 22.1812H14.214C13.8783 22.1798 13.5568 22.0457 13.3197 21.808C13.0826 21.5704 12.9492 21.2485 12.9486 20.9128V19.3179C12.949 18.9814 13.0828 18.6589 13.3208 18.4211C13.5587 18.1833 13.8813 18.0496 14.2177 18.0495H14.43C14.7656 18.0508 15.0871 18.185 15.3241 18.4227C15.561 18.6604 15.6943 18.9822 15.6947 19.3179V20.9128ZM19.0449 19.1412V21.0902C19.0453 21.3797 19.1606 21.6572 19.3654 21.8618C19.5703 22.0663 19.8479 22.1812 20.1374 22.1812H20.7022C20.9132 22.1812 21.1197 22.1202 21.2969 22.0055C21.474 21.8908 21.6141 21.7273 21.7005 21.5348C21.728 21.4713 21.7679 21.4139 21.8178 21.3659C21.8676 21.3179 21.9265 21.2802 21.991 21.2551C22.0555 21.23 22.1243 21.2179 22.1935 21.2195C22.2627 21.2212 22.3309 21.2365 22.3942 21.2646C22.4574 21.2928 22.5144 21.3332 22.562 21.3835C22.6095 21.4338 22.6466 21.493 22.6711 21.5577C22.6957 21.6225 22.7071 21.6914 22.7048 21.7606C22.7026 21.8298 22.6866 21.8978 22.6579 21.9608C22.4893 22.3386 22.2149 22.6595 21.8679 22.8847C21.5208 23.11 21.116 23.2298 20.7022 23.2299H20.1374C19.5698 23.2297 19.0254 23.0043 18.6238 22.6031C18.2222 22.202 17.9963 21.6578 17.9955 21.0902V19.1412C17.9961 18.5736 18.2217 18.0295 18.623 17.6281C19.0243 17.2267 19.5684 17.0008 20.1359 17H20.7007C21.1146 17.0003 21.5195 17.1204 21.8666 17.3459C22.2136 17.5714 22.488 17.8926 22.6564 18.2706C22.6851 18.3336 22.7011 18.4016 22.7034 18.4708C22.7056 18.54 22.6942 18.6089 22.6696 18.6737C22.6451 18.7384 22.608 18.7976 22.5605 18.8479C22.5129 18.8982 22.4559 18.9386 22.3927 18.9668C22.3294 18.9949 22.2612 19.0102 22.192 19.0119C22.1229 19.0135 22.054 19.0014 21.9895 18.9763C21.925 18.9512 21.8661 18.9135 21.8163 18.8655C21.7664 18.8175 21.7265 18.7601 21.699 18.6966C21.6129 18.5038 21.4728 18.34 21.2957 18.2251C21.1185 18.1101 20.9119 18.0488 20.7007 18.0487H20.1359C19.8465 18.0493 19.5691 18.1646 19.3646 18.3694C19.1601 18.5742 19.0451 18.8518 19.0449 19.1412ZM28.7015 17.8342L27.0301 20.115L28.7015 22.395C28.7422 22.4505 28.7716 22.5134 28.7879 22.5803C28.8043 22.6472 28.8073 22.7166 28.7968 22.7846C28.7864 22.8526 28.7626 22.9179 28.7269 22.9767C28.6912 23.0356 28.6442 23.0868 28.5887 23.1275C28.5332 23.1682 28.4702 23.1976 28.4034 23.2139C28.3365 23.2303 28.2671 23.2333 28.1991 23.2228C28.1311 23.2123 28.0658 23.1886 28.0069 23.1529C27.9481 23.1171 27.8969 23.0702 27.8562 23.0147L26.3822 21.0011L24.906 23.0147C24.8238 23.1268 24.7004 23.2017 24.5631 23.2228C24.4257 23.244 24.2855 23.2097 24.1734 23.1275C24.0613 23.0453 23.9865 22.922 23.9653 22.7846C23.9442 22.6472 23.9784 22.5071 24.0606 22.395L25.7328 20.115L24.0606 17.8342C23.9784 17.7221 23.9442 17.582 23.9653 17.4446C23.9865 17.3072 24.0613 17.1839 24.1734 17.1017C24.2855 17.0195 24.4257 16.9852 24.5631 17.0064C24.7004 17.0275 24.8238 17.1024 24.906 17.2145L26.3822 19.228L27.8584 17.2145C27.9406 17.1024 28.0639 17.0275 28.2013 17.0064C28.3387 16.9852 28.4788 17.0195 28.5909 17.1017C28.703 17.1839 28.7779 17.3072 28.7991 17.4446C28.8202 17.582 28.7859 17.7221 28.7038 17.8342H28.7015Z" fill="#F1F2F6"/>
<path d="M8.03457 17.0007H6.32086C6.18189 17.0007 6.04861 17.0559 5.95035 17.1542C5.85208 17.2525 5.79688 17.3858 5.79688 17.5247V22.7059C5.79688 22.8449 5.85208 22.9782 5.95035 23.0765C6.04861 23.1747 6.18189 23.2299 6.32086 23.2299H8.03457C8.72622 23.2291 9.38932 22.954 9.8784 22.465C10.3675 21.9759 10.6426 21.3128 10.6434 20.6211V19.6095C10.6426 18.9179 10.3675 18.2548 9.8784 17.7657C9.38932 17.2766 8.72622 17.0015 8.03457 17.0007ZM9.59316 20.6211C9.59316 21.0345 9.42896 21.4309 9.13666 21.7232C8.84437 22.0155 8.44794 22.1797 8.03457 22.1797H6.84707V18.0495H8.03457C8.44794 18.0495 8.84437 18.2137 9.13666 18.506C9.42896 18.7982 9.59316 19.1947 9.59316 19.608V20.6211ZM14.4263 17.0007H14.214C13.5997 17.0015 13.0108 17.2459 12.5764 17.6803C12.1421 18.1146 11.8977 18.7036 11.8969 19.3179V20.9128C11.8977 21.5271 12.1421 22.116 12.5764 22.5504C13.0108 22.9848 13.5997 23.2291 14.214 23.2299H14.4263C15.0406 23.2291 15.6295 22.9848 16.0639 22.5504C16.4982 22.116 16.7426 21.5271 16.7434 20.9128V19.3179C16.7426 18.7036 16.4982 18.1146 16.0639 17.6803C15.6295 17.2459 15.0406 17.0015 14.4263 17.0007ZM15.6947 20.9128C15.6943 21.2491 15.5605 21.5715 15.3227 21.8093C15.085 22.0471 14.7626 22.1808 14.4263 22.1812H14.214C13.8783 22.1798 13.5568 22.0457 13.3197 21.808C13.0826 21.5704 12.9492 21.2485 12.9486 20.9128V19.3179C12.949 18.9814 13.0828 18.6589 13.3208 18.4211C13.5587 18.1833 13.8813 18.0496 14.2177 18.0495H14.43C14.7656 18.0508 15.0871 18.185 15.3241 18.4227C15.561 18.6604 15.6943 18.9822 15.6947 19.3179V20.9128ZM19.0449 19.1412V21.0902C19.0453 21.3797 19.1606 21.6572 19.3654 21.8618C19.5703 22.0663 19.8479 22.1812 20.1374 22.1812H20.7022C20.9132 22.1812 21.1197 22.1202 21.2969 22.0055C21.474 21.8908 21.6141 21.7273 21.7005 21.5348C21.728 21.4713 21.7679 21.4139 21.8178 21.3659C21.8676 21.3179 21.9265 21.2802 21.991 21.2551C22.0555 21.23 22.1243 21.2179 22.1935 21.2195C22.2627 21.2212 22.3309 21.2365 22.3942 21.2646C22.4574 21.2928 22.5144 21.3332 22.562 21.3835C22.6095 21.4338 22.6466 21.493 22.6711 21.5577C22.6957 21.6225 22.7071 21.6914 22.7048 21.7606C22.7026 21.8298 22.6866 21.8978 22.6579 21.9608C22.4893 22.3386 22.2149 22.6595 21.8679 22.8847C21.5208 23.11 21.116 23.2298 20.7022 23.2299H20.1374C19.5698 23.2297 19.0254 23.0043 18.6238 22.6031C18.2222 22.202 17.9963 21.6578 17.9955 21.0902V19.1412C17.9961 18.5736 18.2217 18.0295 18.623 17.6281C19.0243 17.2267 19.5684 17.0008 20.1359 17H20.7007C21.1146 17.0003 21.5195 17.1204 21.8666 17.3459C22.2136 17.5714 22.488 17.8926 22.6564 18.2706C22.6851 18.3336 22.7011 18.4016 22.7034 18.4708C22.7056 18.54 22.6942 18.6089 22.6696 18.6737C22.6451 18.7384 22.608 18.7976 22.5605 18.8479C22.5129 18.8982 22.4559 18.9386 22.3927 18.9668C22.3294 18.9949 22.2612 19.0102 22.192 19.0119C22.1229 19.0135 22.054 19.0014 21.9895 18.9763C21.925 18.9512 21.8661 18.9135 21.8163 18.8655C21.7664 18.8175 21.7265 18.7601 21.699 18.6966C21.6129 18.5038 21.4728 18.34 21.2957 18.2251C21.1185 18.1101 20.9119 18.0488 20.7007 18.0487H20.1359C19.8465 18.0493 19.5691 18.1646 19.3646 18.3694C19.1601 18.5742 19.0451 18.8518 19.0449 19.1412ZM28.7015 17.8342L27.0301 20.115L28.7015 22.395C28.7422 22.4505 28.7716 22.5134 28.7879 22.5803C28.8043 22.6472 28.8073 22.7166 28.7968 22.7846C28.7864 22.8526 28.7626 22.9179 28.7269 22.9767C28.6912 23.0356 28.6442 23.0868 28.5887 23.1275C28.5332 23.1682 28.4702 23.1976 28.4034 23.2139C28.3365 23.2303 28.2671 23.2333 28.1991 23.2228C28.1311 23.2123 28.0658 23.1886 28.0069 23.1529C27.9481 23.1171 27.8969 23.0702 27.8562 23.0147L26.3822 21.0011L24.906 23.0147C24.8238 23.1268 24.7004 23.2017 24.5631 23.2228C24.4257 23.244 24.2855 23.2097 24.1734 23.1275C24.0613 23.0453 23.9865 22.922 23.9653 22.7846C23.9442 22.6472 23.9784 22.5071 24.0606 22.395L25.7328 20.115L24.0606 17.8342C23.9784 17.7221 23.9442 17.582 23.9653 17.4446C23.9865 17.3072 24.0613 17.1839 24.1734 17.1017C24.2855 17.0195 24.4257 16.9852 24.5631 17.0064C24.7004 17.0275 24.8238 17.1024 24.906 17.2145L26.3822 19.228L27.8584 17.2145C27.9406 17.1024 28.0639 17.0275 28.2013 17.0064C28.3387 16.9852 28.4788 17.0195 28.5909 17.1017C28.703 17.1839 28.7779 17.3072 28.7991 17.4446C28.8202 17.582 28.7859 17.7221 28.7038 17.8342H28.7015Z" stroke="#F1F2F6" stroke-width="0.4" mask="url(#path-6-outside-1_112_4278)"/>
</svg>
