<svg width="16" height="16" viewBox="0 0 16 16" fill="none" xmlns="http://www.w3.org/2000/svg">
<g clip-path="url(#clip0_88_2914)">
<path d="M6.66797 8.66599C6.95427 9.04874 7.31954 9.36545 7.739 9.59462C8.15846 9.82379 8.62231 9.96007 9.09907 9.99421C9.57583 10.0284 10.0544 9.95957 10.5022 9.79251C10.95 9.62546 11.3567 9.36404 11.6946 9.02599L13.6946 7.02599C14.3018 6.39732 14.6378 5.55531 14.6302 4.68132C14.6226 3.80733 14.2721 2.97129 13.654 2.35326C13.036 1.73524 12.2 1.38467 11.326 1.37708C10.452 1.36948 9.60998 1.70547 8.9813 2.31266L7.83464 3.45266" stroke="#18470D" stroke-width="1.4" stroke-linecap="round" stroke-linejoin="round"/>
<path d="M9.33334 7.33381C9.04704 6.95106 8.68177 6.63435 8.26231 6.40518C7.84285 6.17601 7.37901 6.03973 6.90224 6.00559C6.42548 5.97144 5.94695 6.04023 5.49911 6.20729C5.05127 6.37435 4.6446 6.63576 4.30668 6.97381L2.30668 8.97381C1.69948 9.60248 1.3635 10.4445 1.3711 11.3185C1.37869 12.1925 1.72926 13.0285 2.34728 13.6465C2.96531 14.2646 3.80135 14.6151 4.67534 14.6227C5.54933 14.6303 6.39134 14.2943 7.02001 13.6871L8.16001 12.5471" stroke="#18470D" stroke-width="1.4" stroke-linecap="round" stroke-linejoin="round"/>
</g>
<defs>
<clipPath id="clip0_88_2914">
<rect width="16" height="16" fill="white"/>
</clipPath>
</defs>
</svg>
