<svg width="24" height="24" viewBox="0 0 24 24" fill="none" xmlns="http://www.w3.org/2000/svg">
<path d="M16.264 4.39731L9.34747 11.4248C9.19578 11.5781 9.11069 11.7851 9.11069 12.0008C9.11069 12.2165 9.19578 12.4235 9.34747 12.5768L16.2625 19.6043C16.4141 19.7586 16.499 19.9662 16.499 20.1826C16.499 20.3989 16.4141 20.6065 16.2625 20.7608C16.1884 20.8368 16.0999 20.8972 16.0021 20.9384C15.9043 20.9796 15.7993 21.0009 15.6932 21.0009C15.5871 21.0009 15.4821 20.9796 15.3843 20.9384C15.2866 20.8972 15.198 20.8368 15.124 20.7608L8.20897 13.7348C7.75458 13.272 7.5 12.6494 7.5 12.0008C7.5 11.3522 7.75458 10.7296 8.20897 10.2668L15.124 3.24081C15.1981 3.16461 15.2867 3.10404 15.3846 3.06267C15.4825 3.02131 15.5877 3 15.694 3C15.8003 3 15.9055 3.02131 16.0034 3.06267C16.1013 3.10404 16.1899 3.16461 16.264 3.24081C16.4156 3.3951 16.5005 3.60275 16.5005 3.81906C16.5005 4.03537 16.4156 4.24303 16.264 4.39731Z" fill="black"/>
</svg>
