<svg width="38" height="38" viewBox="0 0 38 38" fill="none" xmlns="http://www.w3.org/2000/svg">
<path d="M9.5 0C8.19375 0 7.125 1.06875 7.125 2.375V35.625C7.125 36.9313 8.19375 38 9.5 38H33.25C34.5562 38 35.625 36.9313 35.625 35.625V9.5L26.125 0H9.5Z" fill="#E2E5E7"/>
<path d="M28.5 9.5H35.625L26.125 0V7.125C26.125 8.43125 27.1938 9.5 28.5 9.5Z" fill="#B0B7BD"/>
<path d="M35.625 16.625L28.5 9.5H35.625V16.625Z" fill="#CAD1D8"/>
<path d="M30.875 30.875C30.875 31.5281 30.3406 32.0625 29.6875 32.0625H3.5625C2.90938 32.0625 2.375 31.5281 2.375 30.875V19C2.375 18.3469 2.90938 17.8125 3.5625 17.8125H29.6875C30.3406 17.8125 30.875 18.3469 30.875 19V30.875Z" fill="#F15642"/>
<path d="M10.3926 21.7939C11.021 21.7939 11.6208 22.0045 12.0635 22.4189C12.5066 22.8339 12.789 23.4498 12.7891 24.2539C12.7891 25.0174 12.5064 25.6158 12.0635 26.0225C11.621 26.4285 11.0211 26.6416 10.3926 26.6416H8.85742V27.8457C8.85735 28.0654 8.78681 28.2422 8.66699 28.3643C8.54722 28.4862 8.38182 28.5498 8.19922 28.5498C7.86268 28.5497 7.50506 28.2952 7.50488 27.8457V22.499C7.505 22.1635 7.76894 21.7941 8.19922 21.7939H10.3926ZM16.7734 21.8789C17.8717 21.879 18.693 22.2957 19.2393 22.9229C19.7846 23.5492 20.0533 24.3833 20.0527 25.2148C20.0521 26.0463 19.7826 26.8797 19.248 27.5059C18.7125 28.133 17.9124 28.5498 16.8584 28.5498H14.5986C14.4338 28.5497 14.2583 28.5052 14.123 28.4023C13.9859 28.2981 13.8936 28.136 13.8936 27.9121V22.5186C13.8936 22.3305 13.9877 22.1697 14.1211 22.0576C14.2542 21.9459 14.4295 21.879 14.5986 21.8789H16.7734ZM25.3213 21.8779C25.5398 21.878 25.7188 21.9431 25.8438 22.0576C25.969 22.1726 26.036 22.3338 26.0361 22.5166C26.0361 22.8443 25.7703 23.2127 25.3213 23.2129H22.6064V24.624H24.9775C25.1648 24.624 25.3482 24.7168 25.4834 24.8506C25.6183 24.9842 25.7118 25.1645 25.7119 25.3467C25.7119 25.5223 25.616 25.678 25.4795 25.7881C25.3428 25.8982 25.1605 25.9668 24.9775 25.9668H22.6064V27.9111C22.6062 28.2688 22.3494 28.5488 21.9873 28.5488C21.7683 28.5488 21.5877 28.4812 21.4609 28.3662C21.334 28.251 21.2648 28.0906 21.2646 27.9111V22.5166C21.2648 22.3333 21.3336 22.1723 21.4609 22.0576C21.588 21.9432 21.7692 21.878 21.9873 21.8779H25.3213ZM15.2471 27.292H16.7734C17.399 27.2919 17.8732 27.0331 18.1934 26.6455C18.5143 26.2569 18.6814 25.7367 18.6885 25.2148C18.6955 24.6928 18.5417 24.1723 18.2246 23.7842C17.9085 23.3975 17.428 23.1387 16.7734 23.1387H15.2471V27.292ZM8.85742 25.3555H10.3926C10.9995 25.3555 11.4824 24.8172 11.4824 24.2539C11.4822 23.6145 10.998 23.0898 10.3926 23.0898H8.85742V25.3555Z" fill="white" stroke="white" stroke-width="0.1"/>
<path d="M29.6875 32.0625H7.125V33.25H29.6875C30.3406 33.25 30.875 32.7156 30.875 32.0625V30.875C30.875 31.5281 30.3406 32.0625 29.6875 32.0625Z" fill="#CAD1D8"/>
</svg>
