<svg width="48" height="48" viewBox="0 0 48 48" fill="none" xmlns="http://www.w3.org/2000/svg">
<rect x="0.5" y="0.5" width="47" height="47" rx="23.5" fill="#FAFFE9"/>
<rect x="0.5" y="0.5" width="47" height="47" rx="23.5" stroke="#CBEC5E"/>
<path d="M27.2292 35.625L27.2292 12.375M27.2292 35.625L32.525 35.625C33.3472 35.625 34.1357 35.2984 34.717 34.717C35.2984 34.1357 35.625 33.3472 35.625 32.525L35.625 15.475C35.625 14.6528 35.2984 13.8643 34.717 13.283C34.1357 12.7016 33.3472 12.375 32.525 12.375L27.2292 12.375M27.2292 35.625L15.475 35.625C15.0679 35.625 14.6648 35.5448 14.2887 35.389C13.9126 35.2332 13.5708 35.0049 13.283 34.717C12.7016 34.1357 12.375 33.3472 12.375 32.525L12.375 15.475C12.375 14.6528 12.7016 13.8643 13.283 13.283C13.8643 12.7016 14.6528 12.375 15.475 12.375L27.2292 12.375" stroke="#18470D" stroke-width="1.5" stroke-miterlimit="10" stroke-linecap="round" stroke-linejoin="round"/>
<path d="M17.0472 20.208L17.9314 19.3688L22.7472 23.9423C22.8249 24.0155 22.8865 24.1027 22.9285 24.1987C22.9705 24.2947 22.9922 24.3976 22.9922 24.5016C22.9922 24.6055 22.9705 24.7085 22.9285 24.8045C22.8865 24.9005 22.8249 24.9876 22.7472 25.0609L17.9314 29.6367L17.0481 28.7976L21.5681 24.5028L17.0472 20.208Z" fill="#18470D"/>
</svg>
