<svg width="24" height="24" viewBox="0 0 24 24" fill="none" xmlns="http://www.w3.org/2000/svg">
<path d="M22.5 4.76625V7.75875C22.5046 9.71404 22.1368 11.6523 21.4163 13.47C20.9279 13.0267 20.3673 12.6704 19.7587 12.4163C20.5451 10.4429 20.6833 8.23847 20.625 6.12C20.6247 6.04692 20.6034 5.97548 20.5635 5.91427C20.5235 5.85306 20.4668 5.80469 20.4 5.775C19.3579 5.33292 18.5283 4.50333 18.0862 3.46125C18.0566 3.39447 18.0082 3.33771 17.947 3.29778C17.8858 3.25786 17.8143 3.23649 17.7412 3.23625H6.25875C6.18567 3.23649 6.11422 3.25786 6.05301 3.29778C5.9918 3.33771 5.94344 3.39447 5.91375 3.46125C5.47167 4.50333 4.64208 5.33292 3.6 5.775C3.53323 5.80468 3.47647 5.85304 3.43657 5.91426C3.39667 5.97548 3.37533 6.04693 3.37513 6.12C2.93685 12.22 6.12142 17.9737 11.8575 20.3213C12.1109 20.4206 12.3561 20.2048 12.5887 20.13C12.893 20.7439 13.3088 21.2958 13.815 21.7575C13.2675 22.0312 12.704 22.2717 12.1275 22.4775C12.0451 22.5075 11.9548 22.5075 11.8725 22.4775C8.83667 21.3934 6.21036 19.3971 4.35344 16.7621C2.49652 14.1271 1.49985 10.9823 1.5 7.75875V4.76625C1.5003 4.66689 1.5399 4.57167 1.61016 4.50141C1.68042 4.43115 1.77564 4.39155 1.875 4.39125C2.54212 4.39051 3.18171 4.12517 3.65344 3.65344C4.12517 3.18171 4.39051 2.54212 4.39125 1.875C4.39154 1.77563 4.43114 1.68042 4.5014 1.61015C4.57167 1.53989 4.66688 1.50029 4.76625 1.5H19.2337C19.3331 1.50029 19.4283 1.53989 19.4986 1.61015C19.5689 1.68042 19.6085 1.77563 19.6087 1.875C19.6095 2.54212 19.8748 3.18171 20.3466 3.65344C20.8183 4.12517 21.4579 4.39051 22.125 4.39125C22.2244 4.39155 22.3196 4.43115 22.3898 4.50141C22.4601 4.57167 22.4997 4.66689 22.5 4.76625ZM17.625 22.5C16.59 22.4988 15.5822 22.1687 14.747 21.5574C13.9119 20.946 13.2927 20.0851 12.9788 19.0988C11.5648 14.6324 16.7321 10.9202 20.5087 13.6987C24.2672 16.4393 22.3241 22.4923 17.625 22.5ZM19.6087 15.8588L16.875 18.5963L15.6413 17.3588C15.5702 17.2903 15.4751 17.2526 15.3765 17.2535C15.2779 17.2544 15.1836 17.294 15.1138 17.3638C15.0441 17.4335 15.0045 17.5278 15.0035 17.6265C15.0026 17.7251 15.0404 17.8202 15.1087 17.8913L16.6087 19.3913C16.6798 19.461 16.7754 19.5 16.875 19.5C16.9746 19.5 17.0702 19.461 17.1412 19.3913L20.1412 16.3912C20.2094 16.3201 20.247 16.2252 20.2459 16.1267C20.2449 16.0282 20.2053 15.934 20.1356 15.8644C20.066 15.7947 19.9718 15.7551 19.8733 15.7541C19.7748 15.753 19.6799 15.7906 19.6087 15.8588ZM12.2625 19.32C12.3676 19.4911 12.1141 19.494 12.0001 19.5675C6.75298 17.3667 3.73399 11.9862 4.125 6.36C5.1601 5.8574 5.99615 5.02135 6.49875 3.98625H17.5012C18.0039 5.02133 18.8399 5.85736 19.875 6.35998C19.9326 8.32526 19.7766 10.3495 19.0425 12.18C18.5795 12.0605 18.1032 12 17.625 12C13.8932 11.9369 11.0817 15.7903 12.2625 19.32Z" fill="#00B800"/>
</svg>
