<svg width="38" height="38" viewBox="0 0 38 38" fill="none" xmlns="http://www.w3.org/2000/svg">
<path d="M11.5 0C10.1938 0 9.125 1.06875 9.125 2.375V35.625C9.125 36.9313 10.1938 38 11.5 38H35.25C36.5562 38 37.625 36.9313 37.625 35.625V9.5L28.125 0H11.5Z" fill="#E2E5E7"/>
<path d="M30.5 26.1875H9.125V27.375L30.5 27.5C31.1531 27.5 31.5 26.6531 31.5 26V25C31.5 25.6531 31.1531 26.1875 30.5 26.1875Z" fill="#CAD1D8"/>
<path d="M30.5 9.5H37.625L28.125 0V7.125C28.125 8.43125 29.1938 9.5 30.5 9.5Z" fill="#B0B7BD"/>
<path d="M37.625 16.625L30.5 9.5H37.625V16.625Z" fill="#CAD1D8"/>
<path d="M29.6282 14H4.96531C3.8799 14 3 14.8799 3 15.9653V24.5873C3 25.6727 3.8799 26.5526 4.96531 26.5526H29.6282C30.7136 26.5526 31.5935 25.6727 31.5935 24.5873V15.9653C31.5935 14.8799 30.7136 14 29.6282 14Z" fill="#0F7642"/>
<mask id="path-6-outside-1_112_4292" maskUnits="userSpaceOnUse" x="4.78906" y="16.1562" width="25" height="8" fill="black">
<rect fill="white" x="4.78906" y="16.1562" width="25" height="8"/>
<path d="M16.6912 22.8629C16.6912 23.0019 16.636 23.1352 16.5377 23.2334C16.4394 23.3317 16.3062 23.3869 16.1672 23.3869H12.3687C12.2297 23.3869 12.0964 23.3317 11.9982 23.2334C11.8999 23.1352 11.8447 23.0019 11.8447 22.8629V17.6817C11.8498 17.5461 11.9073 17.4177 12.005 17.3235C12.1028 17.2293 12.2333 17.1767 12.369 17.1767C12.5048 17.1767 12.6353 17.2293 12.733 17.3235C12.8308 17.4177 12.8883 17.5461 12.8934 17.6817V22.3382H16.1672C16.3062 22.3384 16.4395 22.3938 16.5377 22.4922C16.636 22.5905 16.6912 22.7239 16.6912 22.8629ZM28.584 17.2587C28.4717 17.1766 28.3315 17.1424 28.194 17.1636C28.0566 17.1847 27.9331 17.2595 27.8507 17.3715L26.3767 19.385L24.9005 17.3715C24.8598 17.316 24.8086 17.269 24.7498 17.2333C24.6909 17.1976 24.6256 17.1738 24.5576 17.1634C24.4202 17.1422 24.2801 17.1765 24.168 17.2587C24.0559 17.3409 23.981 17.4642 23.9598 17.6016C23.9387 17.739 23.973 17.8791 24.0552 17.9912L25.7273 20.272L24.0552 22.552C24.0145 22.6075 23.9851 22.6704 23.9687 22.7373C23.9524 22.8041 23.9494 22.8736 23.9598 22.9416C23.9703 23.0096 23.9941 23.0749 24.0298 23.1337C24.0655 23.1926 24.1125 23.2438 24.168 23.2845C24.2235 23.3252 24.2864 23.3545 24.3533 23.3709C24.4202 23.3872 24.4896 23.3903 24.5576 23.3798C24.6256 23.3693 24.6909 23.3456 24.7498 23.3098C24.8086 23.2741 24.8598 23.2272 24.9005 23.1717L26.3767 21.1581L27.8529 23.1717C27.9351 23.2838 28.0585 23.3586 28.1958 23.3798C28.3332 23.401 28.4734 23.3667 28.5855 23.2845C28.6976 23.2023 28.7724 23.079 28.7936 22.9416C28.8147 22.8042 28.7805 22.6641 28.6983 22.552L27.0269 20.272L28.6983 17.9912C28.7389 17.9356 28.7682 17.8726 28.7844 17.8057C28.8007 17.7387 28.8036 17.6693 28.793 17.6013C28.7823 17.5332 28.7584 17.4679 28.7226 17.4092C28.6867 17.3504 28.6396 17.2992 28.584 17.2587ZM10.4234 17.2587C10.3112 17.1767 10.1711 17.1425 10.0338 17.1636C9.89647 17.1848 9.77314 17.2595 9.69086 17.3715L8.21464 19.385L6.73843 17.3715C6.69774 17.3159 6.64651 17.2689 6.58765 17.2332C6.5288 17.1974 6.46348 17.1736 6.39542 17.1631C6.32736 17.1526 6.2579 17.1556 6.191 17.1719C6.12411 17.1883 6.06108 17.2176 6.00552 17.2583C5.94997 17.299 5.90297 17.3502 5.86722 17.4091C5.83146 17.4679 5.80765 17.5333 5.79714 17.6013C5.78663 17.6694 5.78963 17.7388 5.80596 17.8057C5.8223 17.8726 5.85165 17.9357 5.89234 17.9912L7.56375 20.272L5.89234 22.552C5.851 22.6076 5.82112 22.6709 5.80444 22.7381C5.78776 22.8054 5.78461 22.8753 5.79518 22.9438C5.80574 23.0123 5.82981 23.078 5.86598 23.1372C5.90216 23.1963 5.94971 23.2476 6.00589 23.2882C6.09549 23.3544 6.20399 23.39 6.31539 23.3899C6.3978 23.3899 6.47906 23.3705 6.55257 23.3332C6.62608 23.296 6.68976 23.2419 6.73843 23.1754L8.21464 21.1581L9.69086 23.1717C9.77304 23.2838 9.89638 23.3586 10.0338 23.3798C10.1711 23.401 10.3113 23.3667 10.4234 23.2845C10.5355 23.2023 10.6104 23.079 10.6315 22.9416C10.6527 22.8042 10.6184 22.6641 10.5362 22.552L8.8648 20.272L10.5362 17.9912C10.577 17.9357 10.6065 17.8728 10.6229 17.8059C10.6393 17.739 10.6423 17.6696 10.6319 17.6015C10.6214 17.5335 10.5976 17.4682 10.5618 17.4093C10.526 17.3505 10.479 17.2993 10.4234 17.2587ZM21.413 19.9387C21.2133 19.8645 20.8934 19.8066 20.408 19.7546H20.3858L20.3412 19.7487C19.8054 19.6916 19.6369 19.6404 19.5991 19.6262C19.2027 19.4778 18.9474 19.2255 18.9474 18.9791C18.9477 18.9253 18.9593 18.8722 18.9816 18.8232C19.1062 18.5263 19.6184 18.2079 20.3212 18.2079C21.0241 18.2079 21.5377 18.5248 21.6631 18.8239C21.6874 18.8905 21.7251 18.9515 21.7737 19.0031C21.8223 19.0548 21.8809 19.096 21.9459 19.1243C22.0109 19.1527 22.081 19.1675 22.1519 19.168C22.2228 19.1684 22.2931 19.1545 22.3584 19.127C22.4238 19.0995 22.4829 19.059 22.5321 19.008C22.5814 18.9569 22.6198 18.8965 22.645 18.8302C22.6702 18.7639 22.6817 18.6932 22.6787 18.6223C22.6758 18.5515 22.6585 18.4819 22.6279 18.418C22.3125 17.6654 21.3848 17.1562 20.3197 17.1562C19.2547 17.1562 18.3284 17.6624 18.0145 18.412C17.9373 18.5901 17.8974 18.782 17.8972 18.9761C17.8972 19.676 18.4093 20.3002 19.2332 20.6089C19.4298 20.6831 19.7468 20.7395 20.2299 20.7907H20.2544L20.2967 20.7967C20.8363 20.8538 21.007 20.9058 21.0463 20.9206C21.4404 21.0691 21.6957 21.3207 21.6957 21.5663C21.6951 21.6198 21.6835 21.6726 21.6616 21.7214C21.5362 22.0183 21.0233 22.3375 20.3197 22.3375C19.6161 22.3375 19.1048 22.0205 18.9801 21.7214C18.9216 21.6007 18.8191 21.507 18.6936 21.4596C18.5681 21.4121 18.4292 21.4147 18.3055 21.4666C18.1818 21.5186 18.0828 21.616 18.0288 21.7388C17.9748 21.8616 17.9699 22.0004 18.0152 22.1267C18.3307 22.88 19.2577 23.3884 20.3219 23.3884C21.3862 23.3884 22.3147 22.8822 22.6287 22.1326C22.7057 21.9545 22.7456 21.7626 22.7459 21.5686C22.7444 20.8687 22.2346 20.2452 21.413 19.9387Z"/>
</mask>
<path d="M16.6912 22.8629C16.6912 23.0019 16.636 23.1352 16.5377 23.2334C16.4394 23.3317 16.3062 23.3869 16.1672 23.3869H12.3687C12.2297 23.3869 12.0964 23.3317 11.9982 23.2334C11.8999 23.1352 11.8447 23.0019 11.8447 22.8629V17.6817C11.8498 17.5461 11.9073 17.4177 12.005 17.3235C12.1028 17.2293 12.2333 17.1767 12.369 17.1767C12.5048 17.1767 12.6353 17.2293 12.733 17.3235C12.8308 17.4177 12.8883 17.5461 12.8934 17.6817V22.3382H16.1672C16.3062 22.3384 16.4395 22.3938 16.5377 22.4922C16.636 22.5905 16.6912 22.7239 16.6912 22.8629ZM28.584 17.2587C28.4717 17.1766 28.3315 17.1424 28.194 17.1636C28.0566 17.1847 27.9331 17.2595 27.8507 17.3715L26.3767 19.385L24.9005 17.3715C24.8598 17.316 24.8086 17.269 24.7498 17.2333C24.6909 17.1976 24.6256 17.1738 24.5576 17.1634C24.4202 17.1422 24.2801 17.1765 24.168 17.2587C24.0559 17.3409 23.981 17.4642 23.9598 17.6016C23.9387 17.739 23.973 17.8791 24.0552 17.9912L25.7273 20.272L24.0552 22.552C24.0145 22.6075 23.9851 22.6704 23.9687 22.7373C23.9524 22.8041 23.9494 22.8736 23.9598 22.9416C23.9703 23.0096 23.9941 23.0749 24.0298 23.1337C24.0655 23.1926 24.1125 23.2438 24.168 23.2845C24.2235 23.3252 24.2864 23.3545 24.3533 23.3709C24.4202 23.3872 24.4896 23.3903 24.5576 23.3798C24.6256 23.3693 24.6909 23.3456 24.7498 23.3098C24.8086 23.2741 24.8598 23.2272 24.9005 23.1717L26.3767 21.1581L27.8529 23.1717C27.9351 23.2838 28.0585 23.3586 28.1958 23.3798C28.3332 23.401 28.4734 23.3667 28.5855 23.2845C28.6976 23.2023 28.7724 23.079 28.7936 22.9416C28.8147 22.8042 28.7805 22.6641 28.6983 22.552L27.0269 20.272L28.6983 17.9912C28.7389 17.9356 28.7682 17.8726 28.7844 17.8057C28.8007 17.7387 28.8036 17.6693 28.793 17.6013C28.7823 17.5332 28.7584 17.4679 28.7226 17.4092C28.6867 17.3504 28.6396 17.2992 28.584 17.2587ZM10.4234 17.2587C10.3112 17.1767 10.1711 17.1425 10.0338 17.1636C9.89647 17.1848 9.77314 17.2595 9.69086 17.3715L8.21464 19.385L6.73843 17.3715C6.69774 17.3159 6.64651 17.2689 6.58765 17.2332C6.5288 17.1974 6.46348 17.1736 6.39542 17.1631C6.32736 17.1526 6.2579 17.1556 6.191 17.1719C6.12411 17.1883 6.06108 17.2176 6.00552 17.2583C5.94997 17.299 5.90297 17.3502 5.86722 17.4091C5.83146 17.4679 5.80765 17.5333 5.79714 17.6013C5.78663 17.6694 5.78963 17.7388 5.80596 17.8057C5.8223 17.8726 5.85165 17.9357 5.89234 17.9912L7.56375 20.272L5.89234 22.552C5.851 22.6076 5.82112 22.6709 5.80444 22.7381C5.78776 22.8054 5.78461 22.8753 5.79518 22.9438C5.80574 23.0123 5.82981 23.078 5.86598 23.1372C5.90216 23.1963 5.94971 23.2476 6.00589 23.2882C6.09549 23.3544 6.20399 23.39 6.31539 23.3899C6.3978 23.3899 6.47906 23.3705 6.55257 23.3332C6.62608 23.296 6.68976 23.2419 6.73843 23.1754L8.21464 21.1581L9.69086 23.1717C9.77304 23.2838 9.89638 23.3586 10.0338 23.3798C10.1711 23.401 10.3113 23.3667 10.4234 23.2845C10.5355 23.2023 10.6104 23.079 10.6315 22.9416C10.6527 22.8042 10.6184 22.6641 10.5362 22.552L8.8648 20.272L10.5362 17.9912C10.577 17.9357 10.6065 17.8728 10.6229 17.8059C10.6393 17.739 10.6423 17.6696 10.6319 17.6015C10.6214 17.5335 10.5976 17.4682 10.5618 17.4093C10.526 17.3505 10.479 17.2993 10.4234 17.2587ZM21.413 19.9387C21.2133 19.8645 20.8934 19.8066 20.408 19.7546H20.3858L20.3412 19.7487C19.8054 19.6916 19.6369 19.6404 19.5991 19.6262C19.2027 19.4778 18.9474 19.2255 18.9474 18.9791C18.9477 18.9253 18.9593 18.8722 18.9816 18.8232C19.1062 18.5263 19.6184 18.2079 20.3212 18.2079C21.0241 18.2079 21.5377 18.5248 21.6631 18.8239C21.6874 18.8905 21.7251 18.9515 21.7737 19.0031C21.8223 19.0548 21.8809 19.096 21.9459 19.1243C22.0109 19.1527 22.081 19.1675 22.1519 19.168C22.2228 19.1684 22.2931 19.1545 22.3584 19.127C22.4238 19.0995 22.4829 19.059 22.5321 19.008C22.5814 18.9569 22.6198 18.8965 22.645 18.8302C22.6702 18.7639 22.6817 18.6932 22.6787 18.6223C22.6758 18.5515 22.6585 18.4819 22.6279 18.418C22.3125 17.6654 21.3848 17.1562 20.3197 17.1562C19.2547 17.1562 18.3284 17.6624 18.0145 18.412C17.9373 18.5901 17.8974 18.782 17.8972 18.9761C17.8972 19.676 18.4093 20.3002 19.2332 20.6089C19.4298 20.6831 19.7468 20.7395 20.2299 20.7907H20.2544L20.2967 20.7967C20.8363 20.8538 21.007 20.9058 21.0463 20.9206C21.4404 21.0691 21.6957 21.3207 21.6957 21.5663C21.6951 21.6198 21.6835 21.6726 21.6616 21.7214C21.5362 22.0183 21.0233 22.3375 20.3197 22.3375C19.6161 22.3375 19.1048 22.0205 18.9801 21.7214C18.9216 21.6007 18.8191 21.507 18.6936 21.4596C18.5681 21.4121 18.4292 21.4147 18.3055 21.4666C18.1818 21.5186 18.0828 21.616 18.0288 21.7388C17.9748 21.8616 17.9699 22.0004 18.0152 22.1267C18.3307 22.88 19.2577 23.3884 20.3219 23.3884C21.3862 23.3884 22.3147 22.8822 22.6287 22.1326C22.7057 21.9545 22.7456 21.7626 22.7459 21.5686C22.7444 20.8687 22.2346 20.2452 21.413 19.9387Z" fill="#F1F2F6"/>
<path d="M16.6912 22.8629C16.6912 23.0019 16.636 23.1352 16.5377 23.2334C16.4394 23.3317 16.3062 23.3869 16.1672 23.3869H12.3687C12.2297 23.3869 12.0964 23.3317 11.9982 23.2334C11.8999 23.1352 11.8447 23.0019 11.8447 22.8629V17.6817C11.8498 17.5461 11.9073 17.4177 12.005 17.3235C12.1028 17.2293 12.2333 17.1767 12.369 17.1767C12.5048 17.1767 12.6353 17.2293 12.733 17.3235C12.8308 17.4177 12.8883 17.5461 12.8934 17.6817V22.3382H16.1672C16.3062 22.3384 16.4395 22.3938 16.5377 22.4922C16.636 22.5905 16.6912 22.7239 16.6912 22.8629ZM28.584 17.2587C28.4717 17.1766 28.3315 17.1424 28.194 17.1636C28.0566 17.1847 27.9331 17.2595 27.8507 17.3715L26.3767 19.385L24.9005 17.3715C24.8598 17.316 24.8086 17.269 24.7498 17.2333C24.6909 17.1976 24.6256 17.1738 24.5576 17.1634C24.4202 17.1422 24.2801 17.1765 24.168 17.2587C24.0559 17.3409 23.981 17.4642 23.9598 17.6016C23.9387 17.739 23.973 17.8791 24.0552 17.9912L25.7273 20.272L24.0552 22.552C24.0145 22.6075 23.9851 22.6704 23.9687 22.7373C23.9524 22.8041 23.9494 22.8736 23.9598 22.9416C23.9703 23.0096 23.9941 23.0749 24.0298 23.1337C24.0655 23.1926 24.1125 23.2438 24.168 23.2845C24.2235 23.3252 24.2864 23.3545 24.3533 23.3709C24.4202 23.3872 24.4896 23.3903 24.5576 23.3798C24.6256 23.3693 24.6909 23.3456 24.7498 23.3098C24.8086 23.2741 24.8598 23.2272 24.9005 23.1717L26.3767 21.1581L27.8529 23.1717C27.9351 23.2838 28.0585 23.3586 28.1958 23.3798C28.3332 23.401 28.4734 23.3667 28.5855 23.2845C28.6976 23.2023 28.7724 23.079 28.7936 22.9416C28.8147 22.8042 28.7805 22.6641 28.6983 22.552L27.0269 20.272L28.6983 17.9912C28.7389 17.9356 28.7682 17.8726 28.7844 17.8057C28.8007 17.7387 28.8036 17.6693 28.793 17.6013C28.7823 17.5332 28.7584 17.4679 28.7226 17.4092C28.6867 17.3504 28.6396 17.2992 28.584 17.2587ZM10.4234 17.2587C10.3112 17.1767 10.1711 17.1425 10.0338 17.1636C9.89647 17.1848 9.77314 17.2595 9.69086 17.3715L8.21464 19.385L6.73843 17.3715C6.69774 17.3159 6.64651 17.2689 6.58765 17.2332C6.5288 17.1974 6.46348 17.1736 6.39542 17.1631C6.32736 17.1526 6.2579 17.1556 6.191 17.1719C6.12411 17.1883 6.06108 17.2176 6.00552 17.2583C5.94997 17.299 5.90297 17.3502 5.86722 17.4091C5.83146 17.4679 5.80765 17.5333 5.79714 17.6013C5.78663 17.6694 5.78963 17.7388 5.80596 17.8057C5.8223 17.8726 5.85165 17.9357 5.89234 17.9912L7.56375 20.272L5.89234 22.552C5.851 22.6076 5.82112 22.6709 5.80444 22.7381C5.78776 22.8054 5.78461 22.8753 5.79518 22.9438C5.80574 23.0123 5.82981 23.078 5.86598 23.1372C5.90216 23.1963 5.94971 23.2476 6.00589 23.2882C6.09549 23.3544 6.20399 23.39 6.31539 23.3899C6.3978 23.3899 6.47906 23.3705 6.55257 23.3332C6.62608 23.296 6.68976 23.2419 6.73843 23.1754L8.21464 21.1581L9.69086 23.1717C9.77304 23.2838 9.89638 23.3586 10.0338 23.3798C10.1711 23.401 10.3113 23.3667 10.4234 23.2845C10.5355 23.2023 10.6104 23.079 10.6315 22.9416C10.6527 22.8042 10.6184 22.6641 10.5362 22.552L8.8648 20.272L10.5362 17.9912C10.577 17.9357 10.6065 17.8728 10.6229 17.8059C10.6393 17.739 10.6423 17.6696 10.6319 17.6015C10.6214 17.5335 10.5976 17.4682 10.5618 17.4093C10.526 17.3505 10.479 17.2993 10.4234 17.2587ZM21.413 19.9387C21.2133 19.8645 20.8934 19.8066 20.408 19.7546H20.3858L20.3412 19.7487C19.8054 19.6916 19.6369 19.6404 19.5991 19.6262C19.2027 19.4778 18.9474 19.2255 18.9474 18.9791C18.9477 18.9253 18.9593 18.8722 18.9816 18.8232C19.1062 18.5263 19.6184 18.2079 20.3212 18.2079C21.0241 18.2079 21.5377 18.5248 21.6631 18.8239C21.6874 18.8905 21.7251 18.9515 21.7737 19.0031C21.8223 19.0548 21.8809 19.096 21.9459 19.1243C22.0109 19.1527 22.081 19.1675 22.1519 19.168C22.2228 19.1684 22.2931 19.1545 22.3584 19.127C22.4238 19.0995 22.4829 19.059 22.5321 19.008C22.5814 18.9569 22.6198 18.8965 22.645 18.8302C22.6702 18.7639 22.6817 18.6932 22.6787 18.6223C22.6758 18.5515 22.6585 18.4819 22.6279 18.418C22.3125 17.6654 21.3848 17.1562 20.3197 17.1562C19.2547 17.1562 18.3284 17.6624 18.0145 18.412C17.9373 18.5901 17.8974 18.782 17.8972 18.9761C17.8972 19.676 18.4093 20.3002 19.2332 20.6089C19.4298 20.6831 19.7468 20.7395 20.2299 20.7907H20.2544L20.2967 20.7967C20.8363 20.8538 21.007 20.9058 21.0463 20.9206C21.4404 21.0691 21.6957 21.3207 21.6957 21.5663C21.6951 21.6198 21.6835 21.6726 21.6616 21.7214C21.5362 22.0183 21.0233 22.3375 20.3197 22.3375C19.6161 22.3375 19.1048 22.0205 18.9801 21.7214C18.9216 21.6007 18.8191 21.507 18.6936 21.4596C18.5681 21.4121 18.4292 21.4147 18.3055 21.4666C18.1818 21.5186 18.0828 21.616 18.0288 21.7388C17.9748 21.8616 17.9699 22.0004 18.0152 22.1267C18.3307 22.88 19.2577 23.3884 20.3219 23.3884C21.3862 23.3884 22.3147 22.8822 22.6287 22.1326C22.7057 21.9545 22.7456 21.7626 22.7459 21.5686C22.7444 20.8687 22.2346 20.2452 21.413 19.9387Z" stroke="#F1F2F6" stroke-width="0.2" mask="url(#path-6-outside-1_112_4292)"/>
</svg>
